<svg width="324" height="414" viewBox="0 0 324 414" fill="none" xmlns="http://www.w3.org/2000/svg">
<path fill-rule="evenodd" clip-rule="evenodd" d="M-85.0723 -169.786C-14.5391 -174.328 57.0788 -167.768 110.632 -121.642C180.357 -61.5861 258.029 18.3474 237.498 108.051C216.971 197.733 104.521 216.264 23.3711 259.612C-65.7393 307.211 -154.752 411.87 -244.523 365.53C-334.069 319.306 -310.84 187.065 -312.362 86.3041C-313.391 18.1411 -296.78 -47.3318 -251.528 -98.3174C-209.358 -145.831 -148.47 -165.702 -85.0723 -169.786Z" fill="url(#paint0_linear_164_2141)"/>
<path fill-rule="evenodd" clip-rule="evenodd" d="M-57.0723 -159.786C13.4609 -164.328 85.0788 -157.768 138.632 -111.642C208.357 -51.5861 286.029 28.3474 265.498 118.051C244.971 207.733 132.521 226.264 51.3711 269.612C-37.7393 317.211 -126.752 421.87 -216.523 375.53C-306.069 329.306 -282.84 197.065 -284.362 96.3041C-285.391 28.1411 -268.78 -37.3318 -223.528 -88.3174C-181.358 -135.831 -120.47 -155.702 -57.0723 -159.786Z" stroke="#0E874A" stroke-width="5"/>
<path fill-rule="evenodd" clip-rule="evenodd" d="M-31.0723 -147.786C39.4609 -152.328 111.079 -145.768 164.632 -99.642C234.357 -39.5861 312.029 40.3474 291.498 130.051C270.971 219.733 158.521 238.264 77.3711 281.612C-11.7393 329.211 -100.752 433.87 -190.523 387.53C-280.069 341.306 -256.84 209.065 -258.362 108.304C-259.391 40.1411 -242.78 -25.3318 -197.528 -76.3174C-155.358 -123.831 -94.4699 -143.702 -31.0723 -147.786Z" stroke="#0E874A" stroke-opacity="0.8" stroke-width="5"/>
<path fill-rule="evenodd" clip-rule="evenodd" d="M-5.07225 -135.786C65.4609 -140.328 137.079 -133.768 190.632 -87.642C260.357 -27.5861 338.029 52.3474 317.498 142.051C296.971 231.733 184.521 250.264 103.371 293.612C14.2607 341.211 -74.7515 445.87 -164.523 399.53C-254.069 353.306 -230.84 221.065 -232.362 120.304C-233.391 52.1411 -216.78 -13.3318 -171.528 -64.3174C-129.358 -111.831 -68.4699 -131.702 -5.07225 -135.786Z" stroke="#0E874A" stroke-opacity="0.5" stroke-width="5"/>
<defs>
<linearGradient id="paint0_linear_164_2141" x1="-36.575" y1="-171" x2="-36.575" y2="377.101" gradientUnits="userSpaceOnUse">
<stop stop-color="#0E874A"/>
<stop offset="1" stop-color="#064525"/>
</linearGradient>
</defs>
</svg>
