<svg width="292" height="402" viewBox="0 0 292 402" fill="none" xmlns="http://www.w3.org/2000/svg">
<path fill-rule="evenodd" clip-rule="evenodd" d="M373.43 100.759C433.795 104.234 496.212 94.8855 549.757 122.973C605.675 152.305 648.836 202.158 675.685 259.309C702.707 316.828 709.111 381.407 700.766 444.408C692.356 507.893 678.182 578.081 628.162 618.07C579.355 657.09 505.679 626.324 446.853 647.401C382.29 670.535 339.048 754.946 271.047 746.027C204.622 737.316 169.022 662.288 132.438 606.165C99.7064 555.953 71.6376 500.619 72.0035 440.682C72.3458 384.624 116.847 341.42 134.379 288.173C154.879 225.913 131.97 142.334 183.555 101.892C234.394 62.0343 308.935 97.0466 373.43 100.759Z" fill="url(#paint0_linear_164_2142)"/>
<path fill-rule="evenodd" clip-rule="evenodd" d="M349.43 75.7593C409.795 79.2342 472.212 69.8855 525.757 97.973C581.675 127.305 624.836 177.158 651.685 234.309C678.707 291.828 685.111 356.407 676.766 419.408C668.356 482.893 654.182 553.081 604.162 593.07C555.355 632.09 481.679 601.324 422.853 622.401C358.29 645.535 315.048 729.946 247.047 721.027C180.622 712.316 145.022 637.288 108.438 581.165C75.7064 530.953 47.6376 475.619 48.0035 415.682C48.3458 359.624 92.8467 316.42 110.379 263.173C130.879 200.913 107.97 117.334 159.555 76.8921C210.394 37.0343 284.935 72.0466 349.43 75.7593Z" stroke="#0E874A" stroke-width="5"/>
<path fill-rule="evenodd" clip-rule="evenodd" d="M326.43 49.7593C386.795 53.2342 449.212 43.8855 502.757 71.973C558.675 101.305 601.836 151.158 628.685 208.309C655.707 265.828 662.111 330.407 653.766 393.408C645.356 456.893 631.182 527.081 581.162 567.07C532.355 606.09 458.679 575.324 399.853 596.401C335.29 619.535 292.048 703.946 224.047 695.027C157.622 686.316 122.022 611.288 85.4378 555.165C52.7064 504.953 24.6376 449.619 25.0035 389.682C25.3458 333.624 69.8467 290.42 87.379 237.173C107.879 174.913 84.9696 91.3344 136.555 50.8921C187.394 11.0343 261.935 46.0466 326.43 49.7593Z" stroke="#0E874A" stroke-opacity="0.8" stroke-width="5"/>
<path fill-rule="evenodd" clip-rule="evenodd" d="M304.43 20.7593C364.795 24.2342 427.212 14.8855 480.757 42.973C536.675 72.3048 579.836 122.158 606.685 179.309C633.707 236.828 640.111 301.407 631.766 364.408C623.356 427.893 609.182 498.081 559.162 538.07C510.355 577.09 436.679 546.324 377.853 567.401C313.29 590.535 270.048 674.946 202.047 666.027C135.622 657.316 100.022 582.288 63.4378 526.165C30.7064 475.953 2.63764 420.619 3.00354 360.682C3.34576 304.624 47.8467 261.42 65.379 208.173C85.879 145.913 62.9696 62.3344 114.555 21.8921C165.394 -17.9657 239.935 17.0466 304.43 20.7593Z" stroke="#0E874A" stroke-opacity="0.5" stroke-width="5"/>
<defs>
<linearGradient id="paint0_linear_164_2142" x1="388.092" y1="83" x2="388.092" y2="746.684" gradientUnits="userSpaceOnUse">
<stop stop-color="#0E874A"/>
<stop offset="1" stop-color="#064525"/>
</linearGradient>
</defs>
</svg>
